<?xml version="1.0" encoding="utf-8"?>
<!-- Generator: Adobe Illustrator 24.3.0, SVG Export Plug-In . SVG Version: 6.00 Build 0)  -->
<svg version="1.1" id="Layer_1" xmlns="http://www.w3.org/2000/svg" xmlns:xlink="http://www.w3.org/1999/xlink" x="0px" y="0px"
	 viewBox="0 0 18 18" style="enable-background:new 0 0 18 18;" xml:space="preserve">
<style type="text/css">
	.st0{fill:#20484F;}
</style>
<path class="st0" d="M9,18c-5,0-9-4-9-9s4-9,9-9s9,4,9,9S14,18,9,18z M16.6,10.2c-0.3-0.1-2.4-0.7-4.8-0.3c1,2.8,1.4,5,1.5,5.5
	C15,14.2,16.2,12.4,16.6,10.2L16.6,10.2z M12,16.1c-0.1-0.7-0.6-3-1.6-5.8l0,0c-4.3,1.5-5.9,4.5-6,4.8c1.3,1,2.9,1.6,4.7,1.6
	C10.1,16.7,11.1,16.5,12,16.1L12,16.1z M3.3,14.2c0.2-0.3,2.3-3.8,6.2-5.1C9.6,9,9.7,9,9.8,9C9.6,8.6,9.4,8.1,9.2,7.7
	C5.4,8.8,1.7,8.8,1.3,8.8V9C1.3,11,2.1,12.8,3.3,14.2L3.3,14.2z M1.5,7.4c0.3,0,3.5,0,7.1-0.9C7.3,4.2,5.9,2.3,5.7,2.1
	C3.6,3.1,2,5,1.5,7.4L1.5,7.4z M7.2,1.5C7.4,1.8,8.8,3.7,10.1,6c2.7-1,3.9-2.6,4-2.8C12.7,2.1,11,1.3,9,1.3C8.4,1.3,7.8,1.4,7.2,1.5
	L7.2,1.5z M15,4.2c-0.2,0.2-1.5,1.9-4.3,3c0.2,0.4,0.4,0.7,0.5,1.1c0.1,0.1,0.1,0.3,0.2,0.4c2.6-0.3,5.1,0.2,5.4,0.2
	C16.7,7.1,16,5.5,15,4.2L15,4.2z"/>
</svg>
