<?xml version="1.0" encoding="utf-8"?>
<!-- Generator: Adobe Illustrator 24.3.0, SVG Export Plug-In . SVG Version: 6.00 Build 0)  -->
<svg version="1.1" id="Layer_1" xmlns="http://www.w3.org/2000/svg" xmlns:xlink="http://www.w3.org/1999/xlink" x="0px" y="0px"
	 viewBox="0 0 18 18" style="enable-background:new 0 0 18 18;" xml:space="preserve">
<style type="text/css">
	.st0{fill:#20484F;}
</style>
<path class="st0" d="M9,0C6.6,0,6.2,0,5.3,0.1c-1,0-1.6,0.2-2.2,0.4S2,1,1.5,1.5s-0.8,1-1,1.6C0.2,3.7,0.1,4.3,0.1,5.3
	C0,6.2,0,6.6,0,9s0,2.8,0.1,3.7c0,1,0.2,1.6,0.4,2.2c0.2,0.6,0.5,1.1,1,1.6s1,0.8,1.6,1s1.2,0.4,2.2,0.4C6.2,18,6.6,18,9,18
	s2.8,0,3.7-0.1c1,0,1.6-0.2,2.2-0.4c0.6-0.2,1.1-0.5,1.6-1s0.8-1,1-1.6s0.4-1.2,0.4-2.2S18,11.4,18,9s0-2.8-0.1-3.7
	c0-1-0.2-1.6-0.4-2.2c-0.2-0.6-0.5-1.1-1-1.6s-1-0.8-1.6-1s-1.2-0.4-2.2-0.4C11.8,0,11.4,0,9,0z M9,1.6c2.4,0,2.7,0,3.6,0.1
	c0.9,0,1.4,0.2,1.7,0.3c0.4,0.2,0.7,0.4,1,0.7s0.5,0.6,0.7,1c0.1,0.3,0.3,0.8,0.3,1.7s0.1,1.2,0.1,3.6s0,2.7-0.1,3.6
	c0,0.9-0.2,1.4-0.3,1.7c-0.2,0.4-0.4,0.7-0.7,1s-0.6,0.5-1,0.7c-0.3,0.1-0.8,0.3-1.7,0.3c-1,0-1.2,0.1-3.6,0.1s-2.7,0-3.6-0.1
	c-0.9,0-1.4-0.2-1.7-0.3c-0.4-0.2-0.7-0.4-1-0.7s-0.5-0.6-0.7-1c-0.1-0.3-0.3-0.8-0.3-1.7s0-1.2,0-3.6s0-2.7,0-3.6S1.9,4,2,3.7
	c0.2-0.4,0.4-0.7,0.7-1s0.6-0.5,1-0.7C4,1.8,4.4,1.7,5.3,1.6C6.3,1.6,6.6,1.6,9,1.6L9,1.6z M9,4.4c-2.6,0-4.6,2-4.6,4.6
	s2.1,4.6,4.6,4.6c2.6,0,4.6-2.1,4.6-4.6C13.6,6.4,11.6,4.4,9,4.4z M9,12c-1.7,0-3-1.3-3-3s1.3-3,3-3s3,1.3,3,3S10.7,12,9,12z
	 M14.9,4.2c0,0.6-0.5,1.1-1.1,1.1s-1.1-0.5-1.1-1.1s0.5-1.1,1.1-1.1S14.9,3.6,14.9,4.2z"/>
</svg>
