<?xml version="1.0" encoding="utf-8"?>
<!-- Generator: Adobe Illustrator 24.3.0, SVG Export Plug-In . SVG Version: 6.00 Build 0)  -->
<svg version="1.1" id="Layer_1" xmlns="http://www.w3.org/2000/svg" xmlns:xlink="http://www.w3.org/1999/xlink" x="0px" y="0px"
	 viewBox="0 0 18 18" style="enable-background:new 0 0 18 18;" xml:space="preserve">
<style type="text/css">
	.st0{clip-path:url(#SVGID_2_);}
	.st1{fill:#20484F;}
</style>
<g>
	<g>
		<defs>
			<rect id="SVGID_1_" y="0" width="18" height="18"/>
		</defs>
		<clipPath id="SVGID_2_">
			<use xlink:href="#SVGID_1_"  style="overflow:visible;"/>
		</clipPath>
		<g class="st0">
			<path class="st1" d="M18,3.4c-0.7,0.3-1.4,0.5-2.1,0.6c0.8-0.5,1.3-1.2,1.6-2c-0.7,0.4-1.5,0.7-2.3,0.9c-0.7-0.7-1.6-1.2-2.7-1.2
				c-2,0-3.7,1.7-3.7,3.7c0,0.3,0,0.6,0.1,0.8C5.8,6.1,3,4.6,1.2,2.4C0.9,2.9,0.7,3.5,0.7,4.2c0,1.3,0.7,2.4,1.6,3.1
				c-0.6,0-1.2-0.2-1.7-0.5l0,0c0,1.8,1.3,3.3,3,3.6c-0.3,0.1-0.6,0.1-1,0.1c-0.2,0-0.5,0-0.7-0.1c0.5,1.5,1.8,2.5,3.5,2.6
				c-1.3,1-2.9,1.6-4.6,1.6c-0.3,0-0.6,0-0.9-0.1c1.6,1,3.6,1.7,5.7,1.7c6.8,0,10.5-5.6,10.5-10.5c0-0.2,0-0.3,0-0.5
				C16.9,4.8,17.5,4.2,18,3.4L18,3.4z"/>
		</g>
	</g>
</g>
</svg>
